<?xml version="1.0" encoding="utf-8"?>
<!-- Generator: Adobe Illustrator 19.2.0, SVG Export Plug-In . SVG Version: 6.00 Build 0)  -->
<svg version="1.1" id="Layer_1" xmlns="http://www.w3.org/2000/svg" xmlns:xlink="http://www.w3.org/1999/xlink" x="0px" y="0px"
	 viewBox="0 0 144 126" style="enable-background:new 0 0 144 126;" xml:space="preserve">
<style type="text/css">
	.st0{fill:none;stroke:#5D476B;stroke-width:4.3738;stroke-miterlimit:10;}
	.st1{fill:none;stroke:#7B6788;stroke-width:4.3738;stroke-miterlimit:10;}
	.st2{fill:none;stroke:#3E2D48;stroke-width:4.3738;stroke-miterlimit:10;}
	.st3{fill:none;stroke:#CBC1CB;stroke-width:4.3738;stroke-miterlimit:10;}
	.st4{fill:none;stroke:#A69CA2;stroke-width:4.3738;stroke-miterlimit:10;}
</style>
<path class="st0" d="M80.6,108.6H60.2c-25,0-45.2-20.2-45.2-45.2s20.2-45.2,45.2-45.2h36.3"/>
<path class="st1" d="M80.6,99.8H60.2c-20.1,0-36.4-16.4-36.4-36.4c0-20.1,16.4-36.4,36.4-36.4h28"/>
<path class="st2" d="M80.6,91.1H60.2c-15.3,0-27.7-12.4-27.7-27.7S45,35.7,60.2,35.7h23.2"/>
<path class="st0" d="M80.6,82.3H60.2c-10.5,0-19-8.5-19-19c0-10.5,8.5-19,19-19h20.4"/>
<path class="st0" d="M134.5,18.2l1.6,0 M89.4,117.3V71.2l0-12c0-2.3,0-4.7,0-7c0-2.8,0.2-5.2,0.6-7.4c0.4-2.4,1-4.5,1.8-6.5
	c1.5-3.5,3.5-6.7,6.2-9.6c2.6-2.8,5.7-5.2,9-6.9c4.2-2.2,8.7-3.3,13.6-3.4l13.9-0.1 M89.4,117.3"/>
<path class="st1" d="M134.5,27l-13.7,0.1c-3.5,0.1-6.8,0.9-9.8,2.5c-2.5,1.3-4.7,3-6.6,5.1c-1.9,2.1-3.5,4.5-4.5,7
	c-0.6,1.4-1,2.9-1.3,4.6c-0.3,1.7-0.5,3.7-0.5,6c0,2.3,0,4.6,0,6.8l0,12.1v46.1"/>
<line class="st3" x1="136.2" y1="27" x2="134.5" y2="27"/>
<path class="st2" d="M134.5,35.7l-13.4,0.1c-2.2,0.1-4.2,0.6-6,1.5c-1.6,0.8-3,1.9-4.2,3.3c-1.2,1.3-2.2,2.8-2.9,4.5
	c-0.3,0.8-0.6,1.6-0.7,2.7c-0.2,1.3-0.3,2.8-0.4,4.7c0,2.3,0,4.5,0,6.7l0,12.1v46.1"/>
<line class="st4" x1="136.3" y1="35.7" x2="134.5" y2="35.7"/>
<path class="st2" d="M80.6,117.3c0-7.7,0-15.4,0-23.1s0-15.4,0-23.1c0-3.2,0-6.4,0-9.6c0-3.2,0-6.4,0-9.6c0-3,0.2-5.9,0.7-8.7
	c0.5-2.9,1.2-5.7,2.4-8.4c1.9-4.5,4.5-8.6,7.8-12.1c3.3-3.5,7.1-6.5,11.4-8.8c5.5-2.8,11.4-4.3,17.4-4.4l14.1-0.1"/>
<path class="st2" d="M115.6,117.3V71.2l0-12.1c0-2.2,0-4.4,0-6.6c0-1.4,0.1-2.5,0.2-3.3c0.1-0.6,0.2-0.8,0.2-0.8
	c0.3-0.7,0.7-1.3,1.2-1.9c0.6-0.6,1.2-1.1,1.8-1.4c0.6-0.3,1.3-0.5,2.2-0.5l13.2-0.1c0,0,0-35,0-35c-12.5,0-72.7,0-72.7,0
	C32,9.4,7.9,33.6,7.9,63.4s24.2,53.9,53.9,53.9l55.9,0"/>
</svg>
